<svg width="69" height="69" viewBox="0 0 69 69" fill="none" xmlns="http://www.w3.org/2000/svg">
<rect x="21.2133" y="-23" width="100" height="30" transform="rotate(45 21.2133 -23)" fill="#EE3643"/>
<path d="M36.4721 13.3346L37.0166 11.7012L36.9671 11.6517L36.0365 12.899L32.4232 16.5123L31.1363 15.2254L38.1154 8.24627L39.1054 9.23622L38.0362 15.5521L37.5016 17.136L37.5511 17.1855L38.452 15.9679L42.095 12.3249L43.3819 13.6118L36.4028 20.5909L35.4128 19.601L36.4721 13.3346ZM45.9863 16.2162L50.0946 20.3245L48.8869 21.5322L46.1348 18.7802L44.5212 20.3938L47.0258 22.8984L45.818 24.1061L43.3135 21.6015L41.6207 23.2943L44.4222 26.0959L43.2145 27.3036L39.0567 23.1458L45.9863 16.2162ZM50.5037 28.4749L49.4048 29.8311L49.4444 29.8707L50.8303 28.762L55.889 26.1188L56.7799 27.0098L54.0972 32.0684L53.0082 33.4346L53.0478 33.4742L54.4437 32.3753L59.136 29.3659L60.512 30.7419L51.6223 35.8104L50.7115 34.8997L53.325 29.8113L54.216 28.5838L54.1665 28.5343L52.929 29.4352L47.8605 32.0486L46.9002 31.0884L51.9787 22.2085L53.4537 23.6836L50.5037 28.4749Z" fill="white"/>
</svg>
